<?xml version="1.0" standalone="no"?>
<!DOCTYPE svg PUBLIC "-//W3C//DTD SVG 20010904//EN"
 "http://www.w3.org/TR/2001/REC-SVG-20010904/DTD/svg10.dtd">
<svg version="1.0" xmlns="http://www.w3.org/2000/svg"
 width="683.000000pt" height="683.000000pt" viewBox="0 0 683.000000 683.000000"
 preserveAspectRatio="xMidYMid meet">
<metadata>
Created by potrace 1.11, written by Peter Selinger 2001-2013
</metadata>
<g transform="translate(0.000000,683.000000) scale(0.100000,-0.100000)"
fill="#000000" stroke="none">
<path d="M2954 5310 c-430 -42 -847 -237 -1152 -538 -644 -637 -757 -1612
-276 -2377 31 -49 59 -106 61 -125 2 -19 -18 -171 -46 -337 -28 -166 -51 -313
-51 -327 0 -36 39 -77 75 -78 17 -1 162 45 323 101 161 55 306 101 323 101 16
0 81 -22 142 -49 138 -60 247 -95 397 -128 95 -20 151 -26 320 -30 219 -5 358
7 508 46 l74 19 93 -23 c149 -38 253 -48 430 -42 217 8 365 41 550 125 44 20
94 36 110 35 17 0 128 -34 249 -76 120 -43 233 -77 251 -77 20 0 39 8 51 21
18 20 17 26 -25 283 -24 144 -40 272 -37 284 4 11 32 61 62 111 102 170 162
332 196 526 17 102 19 146 15 295 -6 192 -19 266 -73 430 -109 328 -345 620
-647 802 -71 42 -83 54 -125 125 -282 469 -776 798 -1331 887 -120 20 -350 27
-467 16z m441 -728 c261 -72 424 -215 493 -436 11 -34 16 -87 16 -161 -1 -92
-5 -123 -27 -190 -49 -148 -128 -244 -357 -435 -208 -174 -283 -263 -316 -379
-37 -128 -57 -151 -131 -151 -36 0 -50 6 -73 29 -65 64 -78 234 -28 357 31 78
77 145 194 284 121 144 170 216 208 305 29 66 31 77 31 200 0 115 -3 136 -23
180 -29 64 -74 110 -137 143 -70 36 -188 38 -258 3 -63 -31 -99 -84 -105 -156
-4 -46 1 -65 37 -142 46 -101 53 -169 25 -229 -42 -89 -171 -147 -275 -125
-150 32 -229 146 -229 330 0 198 102 378 276 483 65 40 208 92 295 107 84 15
302 5 384 -17z m-227 -1971 c72 -37 112 -102 112 -181 0 -67 -18 -107 -68
-152 -60 -54 -120 -68 -196 -46 -74 23 -146 118 -146 194 0 68 62 163 125 190
45 20 130 17 173 -5z"/>
</g>
</svg>
